<svg width="1170" height="398" viewBox="0 0 1170 398" fill="none" xmlns="http://www.w3.org/2000/svg">
<path d="M254.859 355.332C227.456 339.499 198.074 329.299 166.712 324.732V585.519H92.7235V324.732C61.362 329.299 31.8274 339.499 4.11965 355.332L-21 300.069C0.922607 286.976 24.6721 277.08 50.2485 270.382C75.8248 263.683 102.162 260.334 129.261 260.334C156.664 260.334 183.154 263.683 208.731 270.382C234.611 277.08 258.361 286.976 279.979 300.069L254.859 355.332Z" fill="black"/>
<path d="M452.588 260.334C482.122 260.334 507.851 266.119 529.773 277.689C551.696 289.26 568.747 306.311 580.926 328.842C593.105 351.374 599.195 378.625 599.195 410.595V585.519H525.206V508.79H379.055V585.519H305.98V410.595C305.98 378.625 312.07 351.374 324.249 328.842C336.428 306.311 353.479 289.26 375.402 277.689C397.324 266.119 423.053 260.334 452.588 260.334ZM525.206 449.416V403.744C525.206 377.255 518.66 357.311 505.567 343.914C492.474 330.212 474.662 323.362 452.131 323.362C429.295 323.362 411.33 330.212 398.238 343.914C385.45 357.311 379.055 377.255 379.055 403.744V449.416H525.206Z" fill="black"/>
<path d="M1083.75 0L837.2 585.519H759.215L621.285 265.815H701.211L798.493 494.175L1010.22 0H1083.75Z" fill="black"/>
<path d="M1126.31 325.188V526.146H1181.57V585.519H996.601V526.146H1052.32V325.188H996.601V265.815H1181.57V325.188H1126.31Z" fill="black"/>
<path d="M1375.61 591C1343.03 591 1313.5 583.997 1287.01 569.991C1260.82 555.68 1240.12 536.041 1224.89 511.074C1209.97 485.802 1202.51 457.333 1202.51 425.667C1202.51 394.001 1209.97 365.684 1224.89 340.717C1240.12 315.445 1260.82 295.806 1287.01 281.8C1313.5 267.489 1343.18 260.334 1376.07 260.334C1403.77 260.334 1428.74 265.206 1450.97 274.949C1473.5 284.692 1492.38 298.699 1507.6 316.967L1460.1 360.813C1438.49 335.845 1411.69 323.362 1379.72 323.362C1359.93 323.362 1342.27 327.776 1326.74 336.606C1311.21 345.132 1299.03 357.159 1290.2 372.687C1281.68 388.216 1277.41 405.876 1277.41 425.667C1277.41 445.458 1281.68 463.118 1290.2 478.647C1299.03 494.175 1311.21 506.354 1326.74 515.184C1342.27 523.71 1359.93 527.973 1379.72 527.973C1411.69 527.973 1438.49 515.337 1460.1 490.065L1507.6 533.91C1492.38 552.483 1473.5 566.642 1450.97 576.385C1428.44 586.128 1403.32 591 1375.61 591Z" fill="black"/>
<path d="M1701.43 260.334C1730.97 260.334 1756.7 266.119 1778.62 277.689C1800.54 289.26 1817.59 306.311 1829.77 328.842C1841.95 351.374 1848.04 378.625 1848.04 410.595V585.519H1774.05V508.79H1627.9V585.519H1554.83V410.595C1554.83 378.625 1560.92 351.374 1573.1 328.842C1585.27 306.311 1602.33 289.26 1624.25 277.689C1646.17 266.119 1671.9 260.334 1701.43 260.334ZM1774.05 449.416V403.744C1774.05 377.255 1767.51 357.311 1754.41 343.914C1741.32 330.212 1723.51 323.362 1700.98 323.362C1678.14 323.362 1660.18 330.212 1647.08 343.914C1634.3 357.311 1627.9 377.255 1627.9 403.744V449.416H1774.05Z" fill="black"/>
</svg>
