<svg width="1870" height="591" viewBox="0 0 1870 591" fill="none" xmlns="http://www.w3.org/2000/svg">
<path d="M275.859 355.332C248.456 339.499 219.074 329.299 187.712 324.732V585.519H113.724V324.732C82.362 329.299 52.8274 339.499 25.1197 355.332L0 300.069C21.9226 286.976 45.6721 277.08 71.2485 270.382C96.8248 263.683 123.162 260.334 150.261 260.334C177.664 260.334 204.154 263.683 229.731 270.382C255.611 277.08 279.361 286.976 300.979 300.069L275.859 355.332Z" fill="black"/>
<path d="M473.588 260.334C503.122 260.334 528.851 266.119 550.773 277.689C572.696 289.26 589.747 306.311 601.926 328.842C614.105 351.374 620.195 378.625 620.195 410.595V585.519H546.206V508.79H400.055V585.519H326.98V410.595C326.98 378.625 333.07 351.374 345.249 328.842C357.428 306.311 374.479 289.26 396.402 277.689C418.324 266.119 444.053 260.334 473.588 260.334ZM546.206 449.416V403.744C546.206 377.255 539.66 357.311 526.567 343.914C513.474 330.212 495.662 323.362 473.131 323.362C450.295 323.362 432.33 330.212 419.238 343.914C406.45 357.311 400.055 377.255 400.055 403.744V449.416H546.206Z" fill="black"/>
<path d="M1104.75 0L858.2 585.519H780.215L642.285 265.815H722.211L819.493 494.175L1031.22 0H1104.75Z" fill="black"/>
<path d="M1147.31 325.188V526.146H1202.57V585.519H1017.6V526.146H1073.32V325.188H1017.6V265.815H1202.57V325.188H1147.31Z" fill="black"/>
<path d="M1396.61 591C1364.03 591 1334.5 583.997 1308.01 569.991C1281.82 555.68 1261.12 536.041 1245.89 511.074C1230.97 485.802 1223.51 457.333 1223.51 425.667C1223.51 394.001 1230.97 365.684 1245.89 340.717C1261.12 315.445 1281.82 295.806 1308.01 281.8C1334.5 267.489 1364.18 260.334 1397.07 260.334C1424.77 260.334 1449.74 265.206 1471.97 274.949C1494.5 284.692 1513.38 298.699 1528.6 316.967L1481.1 360.813C1459.49 335.845 1432.69 323.362 1400.72 323.362C1380.93 323.362 1363.27 327.776 1347.74 336.606C1332.21 345.132 1320.03 357.159 1311.2 372.687C1302.68 388.216 1298.41 405.876 1298.41 425.667C1298.41 445.458 1302.68 463.118 1311.2 478.647C1320.03 494.175 1332.21 506.354 1347.74 515.184C1363.27 523.71 1380.93 527.973 1400.72 527.973C1432.69 527.973 1459.49 515.337 1481.1 490.065L1528.6 533.91C1513.38 552.483 1494.5 566.642 1471.97 576.385C1449.44 586.128 1424.32 591 1396.61 591Z" fill="black"/>
<path d="M1722.43 260.334C1751.97 260.334 1777.7 266.119 1799.62 277.689C1821.54 289.26 1838.59 306.311 1850.77 328.842C1862.95 351.374 1869.04 378.625 1869.04 410.595V585.519H1795.05V508.79H1648.9V585.519H1575.83V410.595C1575.83 378.625 1581.92 351.374 1594.1 328.842C1606.27 306.311 1623.33 289.26 1645.25 277.689C1667.17 266.119 1692.9 260.334 1722.43 260.334ZM1795.05 449.416V403.744C1795.05 377.255 1788.51 357.311 1775.41 343.914C1762.32 330.212 1744.51 323.362 1721.98 323.362C1699.14 323.362 1681.18 330.212 1668.08 343.914C1655.3 357.311 1648.9 377.255 1648.9 403.744V449.416H1795.05Z" fill="black"/>
</svg>
